<svg width="38" height="37" fill="none" xmlns="http://www.w3.org/2000/svg"><path d="M19.077 10.767c-4.156 0-7.537 3.338-7.537 7.442 0 4.105 3.38 7.443 7.537 7.443 4.156 0 7.537-3.338 7.537-7.443 0-4.104-3.38-7.442-7.537-7.442z" fill="#009FE3"/><path d="M37.425 8.338c0-4.547-3.747-8.248-8.352-8.248H9.081C4.476.09.729 3.79.729 8.338v19.739c0 4.55 3.747 8.25 8.352 8.247h19.99c4.607 0 8.354-3.7 8.354-8.247V8.337zM19.078 29.56c-6.339 0-11.495-5.092-11.495-11.351 0-6.26 5.156-11.351 11.495-11.351 6.339 0 11.495 5.092 11.495 11.35 0 6.26-5.156 11.352-11.495 11.352zm14.03-21.123a2.95 2.95 0 01-2.053.839 2.944 2.944 0 01-2.05-.84 2.872 2.872 0 01-.853-2.026c0-.756.312-1.496.853-2.028a2.933 2.933 0 012.05-.839c.765 0 1.515.305 2.053.84a2.86 2.86 0 01.85 2.027 2.87 2.87 0 01-.85 2.027z" fill="#009FE3"/></svg>