<svg width="166" height="49" fill="none" xmlns="http://www.w3.org/2000/svg"><path d="M23.24 32.822h-4.794l3.587 15.693H27l-3.76-15.693z" fill="#009FE3"/><path d="M17.807 29.72l4.54.071L15.294.853H0v47.662h1.368L12.213 8.046l5.594 21.674zM47.34 48.515V.853H35.28l11.756 47.662h.304z" fill="#009FE3"/><path d="M23.24 32.822L27 48.515h20.036L35.28.853H15.294l7.053 28.938-4.54-.071-5.594-21.674-10.845 40.47h20.665l-3.587-15.694h4.793z" fill="#fff"/><path d="M61.124 30.006l-1.328 5.326h-2.645l5.006-20.745h3.832l5.006 20.745H68.35l-1.328-5.337h-5.898v.01zm3-12.45h-.122L61.56 27.935h5.006l-2.442-10.377z" fill="#000"/><path fill-rule="evenodd" clip-rule="evenodd" d="M76.752 23.842h5.665v5.704h-5.665v-5.704z" fill="#009FE3"/><path d="M90.343 19.352c0-1.796.456-3.132 1.358-4.02.902-.878 2.32-1.316 4.236-1.316.882 0 1.723.06 2.534.173.8.123 1.429.255 1.885.418v1.337h-3.83c-2.352 0-3.538 1.133-3.538 3.408 0 .909.203 1.633.618 2.164.416.53.933.98 1.561 1.347.628.367 1.297.704 2.017 1.01.72.306 1.388.694 2.017 1.153a5.69 5.69 0 011.56 1.796c.416.734.619 1.704.619 2.908 0 .97-.122 1.806-.355 2.5a3.954 3.954 0 01-1.135 1.745c-.517.47-1.206.806-2.047 1.04-.842.225-1.875.337-3.092.337a18.41 18.41 0 01-2.533-.173c-.8-.123-1.43-.255-1.885-.419v-1.336h3.83c1.693 0 2.869-.306 3.548-.908.679-.602 1.013-1.541 1.013-2.807 0-.867-.202-1.55-.618-2.04a5.335 5.335 0 00-1.56-1.256 24.852 24.852 0 00-2.018-.99 10.268 10.268 0 01-2.016-1.183c-.629-.47-1.146-1.092-1.561-1.857-.405-.755-.608-1.765-.608-3.03zm11.777-5.04h12.07v2.071h-4.712v18.673h-2.646V16.383h-4.712v-2.071zm20.016 19.265c.507 0 .963-.082 1.368-.255.406-.164.74-.46 1.014-.888.273-.429.486-1 .628-1.735.152-.735.223-1.653.223-2.755V14.312h2.645v13.632c0 1.398-.111 2.582-.334 3.53-.223.95-.578 1.715-1.064 2.286-.477.572-1.095.98-1.845 1.235-.75.245-1.632.367-2.645.367-1.044 0-1.926-.122-2.666-.367a3.873 3.873 0 01-1.824-1.235c-.476-.571-.831-1.336-1.064-2.285-.223-.95-.334-2.123-.334-3.53V14.311h2.645v13.632c0 1.102.071 2.02.223 2.755.152.735.354 1.306.628 1.735.274.428.618.724 1.014.888.425.173.881.255 1.388.255zm21.486-8.888c0 2.071-.152 3.796-.446 5.174-.294 1.377-.74 2.469-1.328 3.275-.587.806-1.327 1.388-2.209 1.724-.882.337-1.915.5-3.091.5-.882 0-1.703-.04-2.463-.132s-1.51-.245-2.25-.46V14.608c.75-.214 1.5-.367 2.25-.459.76-.091 1.571-.132 2.463-.132 1.176 0 2.209.163 3.091.5.882.336 1.622.908 2.209 1.714.588.806 1.034 1.898 1.328 3.275.304 1.378.446 3.102.446 5.184zm-2.645 0c0-1.735-.112-3.173-.324-4.296-.213-1.122-.517-2.02-.902-2.684-.386-.663-.842-1.122-1.389-1.377a4.188 4.188 0 00-1.814-.388h-2.057v17.49h2.057a4.22 4.22 0 001.814-.388c.537-.255 1.003-.714 1.389-1.377.385-.664.679-1.551.902-2.684.212-1.122.324-2.561.324-4.296zm8.827-10.377v20.744h-2.645V14.312h2.645zm9.872-.296c1.003 0 1.885.163 2.665.5.781.336 1.439.908 1.987 1.714.547.806.963 1.898 1.246 3.275.284 1.378.426 3.102.426 5.174 0 2.071-.142 3.796-.426 5.173-.283 1.378-.699 2.47-1.246 3.276-.548.806-1.216 1.388-1.987 1.724-.77.337-1.662.5-2.665.5-1.004 0-1.885-.163-2.666-.5-.77-.336-1.439-.908-1.986-1.724-.547-.806-.963-1.898-1.247-3.276-.283-1.377-.425-3.102-.425-5.173 0-2.072.142-3.796.425-5.174.284-1.377.7-2.469 1.247-3.275.547-.806 1.216-1.388 1.986-1.714.771-.337 1.662-.5 2.666-.5zm0 19.56c.466 0 .932-.132 1.388-.387.456-.255.842-.724 1.176-1.398.334-.674.608-1.582.811-2.724.202-1.143.314-2.613.314-4.388 0-1.776-.101-3.245-.314-4.388-.203-1.143-.477-2.05-.811-2.724-.334-.674-.73-1.133-1.176-1.398-.456-.255-.912-.388-1.388-.388-.466 0-.933.133-1.389.388-.456.255-.841.724-1.175 1.398-.335.673-.608 1.581-.811 2.724-.203 1.143-.304 2.612-.304 4.388 0 1.775.101 3.245.304 4.388.203 1.142.476 2.05.811 2.724.334.674.729 1.133 1.175 1.398.456.265.912.388 1.389.388z" fill="#000"/></svg>