<svg width="25" height="25" fill="none" xmlns="http://www.w3.org/2000/svg"><path d="M25 12.183c0 6.734-5.5 12.184-12.267 12.184-2.15 0-4.166-.55-5.933-1.517L0 25l2.217-6.533A12.043 12.043 0 01.45 12.183C.45 5.45 5.95 0 12.733 0 19.5 0 25 5.45 25 12.183zM12.733 1.933c-5.683 0-10.316 4.6-10.316 10.234 0 2.233.733 4.316 1.966 6l-1.283 3.8L7.067 20.7a10.363 10.363 0 005.683 1.7c5.683 0 10.317-4.6 10.317-10.233 0-5.634-4.65-10.234-10.334-10.234zm6.184 13.05c-.084-.133-.284-.2-.584-.35-.283-.15-1.766-.866-2.033-.966-.283-.1-.483-.15-.683.15-.2.3-.784.966-.95 1.166-.167.2-.35.234-.65.084-.3-.167-1.284-.467-2.417-1.484-.9-.8-1.5-1.766-1.667-2.066-.166-.3-.033-.467.117-.617.133-.133.3-.35.45-.517.15-.166.2-.3.3-.5.1-.2.05-.383-.017-.533-.083-.133-.683-1.617-.933-2.217-.25-.6-.5-.5-.683-.5-.167 0-.384-.033-.584-.033-.2 0-.516.1-.783.383-.267.284-1.067 1.034-1.067 2.5 0 1.467 1.084 2.884 1.234 3.084.15.2 2.083 3.316 5.133 4.5 3.05 1.183 3.05.8 3.617.75.55-.05 1.783-.717 2.033-1.417.25-.7.25-1.283.167-1.417z" fill="#fff"/></svg>