<svg width="25" height="25" fill="none" xmlns="http://www.w3.org/2000/svg"><path d="M12.5 7.273c-2.831 0-5.134 2.275-5.134 5.07 0 2.796 2.303 5.07 5.134 5.07 2.832 0 5.134-2.274 5.134-5.07 0-2.795-2.302-5.07-5.134-5.07z" fill="#fff"/><path d="M25 5.619C25 2.52 22.447 0 19.31 0H5.69C2.553 0 0 2.52 0 5.619v13.447c0 3.1 2.553 5.62 5.69 5.62h13.618c3.14 0 5.692-2.522 5.692-5.62V5.62zM12.5 20.076c-4.318 0-7.831-3.468-7.831-7.733 0-4.264 3.513-7.733 7.831-7.733 4.318 0 7.831 3.47 7.831 7.733 0 4.265-3.513 7.733-7.831 7.733zm9.559-14.39a2.01 2.01 0 01-1.399.572c-.52 0-1.03-.21-1.397-.572a1.957 1.957 0 01-.58-1.381c0-.515.212-1.019.58-1.381a1.998 1.998 0 012.796 0c.368.362.579.866.579 1.381a1.95 1.95 0 01-.58 1.381z" fill="#fff"/></svg>