<svg width="36" height="35" fill="none" xmlns="http://www.w3.org/2000/svg"><path d="M30.514 14.723c.05-4.744-4.255-9.103-9.612-9.705-.077 0-.205-.024-.333-.048a4.433 4.433 0 00-.795-.072c-1.102 0-1.384.722-1.46 1.156-.078.41-.026.746.204 1.035.36.458 1 .53 1.513.602.153.024.282.048.41.072 4.793 1.012 6.407 2.601 7.202 7.056.026.12.026.24.026.385.025.53.102 1.637 1.384 1.637.102 0 .23 0 .333-.024 1.179-.168 1.153-1.18 1.128-1.661v-.433z" fill="#009FE3"/><path d="M19.441 3.285c.154 0 .282.024.385.048 7.868 1.131 11.508 4.647 12.507 12.112.026.12.026.289.026.457 0 .578.026 1.782 1.41 1.83h.051c.436 0 .769-.12 1.025-.36.436-.434.41-1.06.385-1.566v-.337C35.332 7.836 28.31.925 20.184.659h-.205c-.076 0-.18 0-.282-.023-.128-.048-.256-.048-.41-.048-1.281 0-1.537.866-1.563 1.372-.077 1.18 1.128 1.276 1.717 1.325zm12.533 21.767c-.18-.12-.333-.24-.512-.36a47.115 47.115 0 00-2.666-1.83c-.18-.121-.359-.242-.564-.362-1.128-.746-2.153-1.108-3.127-1.108-1.307 0-2.435.675-3.358 1.999-.41.578-.922.867-1.537.867-.36 0-.795-.096-1.23-.29-3.64-1.564-6.255-3.948-7.741-7.103-.718-1.517-.487-2.528.769-3.347.717-.457 2.076-1.324 1.973-2.962-.102-1.854-4.485-7.464-6.33-8.09-.795-.265-1.59-.265-2.435 0-2.128.674-3.64 1.83-4.383 3.395C.089 7.354.14 9.136.935 10.966c2.307 5.297 5.536 9.92 9.612 13.75 3.998 3.732 8.894 6.79 14.584 9.102.512.216 1.05.313 1.435.409.128.024.256.048.333.072.052 0 .103.024.154.024h.051c2.666 0 5.895-2.287 6.87-4.912.845-2.312-.744-3.443-2-4.359zM20.646 9.329c-.462.024-1.41.048-1.769.939-.154.433-.128.794.077 1.108.282.457.82.578 1.307.65 1.794.265 2.717 1.204 2.896 2.938.077.818.667 1.372 1.41 1.372h.18c.897-.096 1.332-.722 1.281-1.83.026-1.156-.64-2.48-1.743-3.54-1.102-1.06-2.435-1.661-3.64-1.637z" fill="#009FE3"/></svg>