<svg width="66" height="65" fill="none" xmlns="http://www.w3.org/2000/svg"><circle cx="32.736" cy="32.534" r="32.466" fill="#A378F1"/><g clip-path="url(#clip0)" fill="#fff"><path d="M44.493 30.563c.047-4.569-3.849-8.766-8.696-9.346-.07 0-.185-.023-.301-.046a3.782 3.782 0 00-.72-.07c-.996 0-1.251.696-1.321 1.113-.07.394-.023.72.186.997.324.441.904.51 1.368.58.139.023.255.046.37.07 4.337.974 5.798 2.504 6.517 6.794.023.116.023.232.023.371.024.51.093 1.577 1.253 1.577.093 0 .208 0 .301-.023 1.067-.162 1.044-1.136 1.02-1.6v-.418z"/><path d="M34.475 19.547c.14 0 .255.024.348.047 7.12 1.09 10.413 4.476 11.317 11.665.023.116.023.278.023.44 0 .557.023 1.716 1.276 1.763h.046c.394 0 .696-.116.928-.348.394-.418.37-1.02.348-1.508v-.324c.092-7.352-6.262-14.007-13.613-14.262h-.186c-.07 0-.162 0-.255-.023-.116-.047-.232-.047-.37-.047-1.16 0-1.392.835-1.415 1.322-.07 1.136 1.02 1.23 1.553 1.276zm11.34 20.964c-.162-.116-.301-.232-.463-.348a42.622 42.622 0 00-2.412-1.762 9.722 9.722 0 00-.51-.348c-1.02-.719-1.948-1.067-2.83-1.067-1.182 0-2.203.65-3.038 1.925-.37.556-.834.835-1.39.835-.326 0-.72-.093-1.114-.279-3.293-1.507-5.658-3.803-7.003-6.84-.65-1.462-.441-2.436.695-3.224.65-.44 1.879-1.275 1.786-2.852-.093-1.786-4.058-7.19-5.728-7.792-.719-.255-1.438-.255-2.203 0-1.925.649-3.293 1.762-3.966 3.27-.672 1.437-.626 3.153.093 4.916 2.087 5.102 5.01 9.554 8.696 13.241 3.618 3.595 8.047 6.54 13.196 8.766.463.209.95.302 1.298.395.116.023.232.046.302.07.046 0 .093.022.139.022h.046c2.412 0 5.334-2.203 6.215-4.73.765-2.227-.672-3.317-1.809-4.198zm-10.25-15.143c-.417.024-1.275.047-1.6.905-.139.417-.116.765.07 1.067.255.44.742.556 1.183.626 1.623.255 2.458 1.16 2.62 2.829.07.788.603 1.322 1.275 1.322h.163c.811-.093 1.206-.696 1.16-1.763.022-1.113-.58-2.388-1.578-3.409-.997-1.02-2.203-1.6-3.293-1.577z"/></g><defs><clipPath id="clip0"><path fill="#fff" transform="translate(17.152 16.95)" d="M0 0h31.631v32.466H0z"/></clipPath></defs></svg>