<svg width="65" height="65" fill="none" xmlns="http://www.w3.org/2000/svg"><circle cx="32.534" cy="32.534" r="32.466" fill="#64B243"/><g clip-path="url(#clip0)"><path d="M49.416 32.772c0 8.744-7.142 15.822-15.93 15.822-2.792 0-5.411-.714-7.705-1.97l-8.831 2.792 2.879-8.484a15.639 15.639 0 01-2.295-8.16c0-8.744 7.143-15.822 15.952-15.822 8.788 0 15.93 7.078 15.93 15.822zm-15.93-13.311c-7.38 0-13.398 5.974-13.398 13.29 0 2.9.953 5.605 2.554 7.791l-1.666 4.935 5.151-1.645a13.46 13.46 0 007.38 2.208c7.381 0 13.398-5.974 13.398-13.29 0-7.315-6.038-13.29-13.419-13.29zm8.03 16.947c-.108-.173-.368-.26-.758-.454-.367-.195-2.294-1.126-2.64-1.256-.368-.13-.628-.194-.888.195-.26.39-1.017 1.256-1.233 1.515-.217.26-.455.303-.844.108-.39-.216-1.667-.605-3.139-1.926a11.264 11.264 0 01-2.164-2.684c-.217-.39-.044-.606.151-.8.173-.174.39-.455.585-.672.195-.216.26-.39.39-.649.13-.26.064-.498-.022-.692-.108-.174-.888-2.1-1.212-2.88-.325-.778-.65-.648-.888-.648-.216 0-.498-.044-.757-.044-.26 0-.671.13-1.018.498-.346.368-1.385 1.342-1.385 3.247 0 1.904 1.407 3.744 1.602 4.004.195.26 2.705 4.307 6.666 5.844 3.961 1.537 3.961 1.039 4.697.974.714-.065 2.316-.93 2.64-1.84.325-.909.325-1.666.217-1.84z" fill="#fff"/></g><defs><clipPath id="clip0"><path fill="#fff" transform="translate(16.95 16.95)" d="M0 0h32.466v32.466H0z"/></clipPath></defs></svg>