<svg width="34" height="34" fill="none" xmlns="http://www.w3.org/2000/svg"><path d="M33.91 16.52c0 9.079-7.416 16.428-16.54 16.428a16.6 16.6 0 01-8.002-2.045l-9.17 2.9 2.99-8.81a16.24 16.24 0 01-2.382-8.474C.806 7.44 8.222.09 17.369.09c9.125 0 16.542 7.35 16.542 16.43zM17.37 2.696c-7.665 0-13.912 6.203-13.912 13.8 0 3.011.988 5.82 2.652 8.09l-1.731 5.125 5.349-1.708a13.975 13.975 0 007.664 2.292c7.664 0 13.912-6.203 13.912-13.8 0-7.596-6.27-13.799-13.935-13.799zm8.337 17.598c-.112-.18-.382-.27-.786-.472-.382-.202-2.383-1.169-2.742-1.303-.382-.135-.652-.203-.922.202-.27.404-1.056 1.303-1.28 1.573-.225.27-.473.315-.877.112-.405-.224-1.73-.629-3.259-2a11.653 11.653 0 01-2.247-2.787c-.225-.404-.045-.629.157-.831.18-.18.404-.472.607-.697.202-.225.27-.405.404-.674.135-.27.068-.517-.022-.72-.113-.18-.922-2.18-1.259-2.988-.337-.81-.674-.675-.921-.675-.225 0-.517-.045-.787-.045s-.697.135-1.056.517c-.36.382-1.439 1.394-1.439 3.371 0 1.978 1.461 3.889 1.664 4.158.202.27 2.809 4.473 6.922 6.068 4.113 1.596 4.113 1.08 4.877 1.012.741-.068 2.404-.967 2.742-1.91.337-.945.337-1.731.224-1.911z" fill="#009FE3"/></svg>