<?xml version="1.0" standalone="no"?>
<!DOCTYPE svg PUBLIC "-//W3C//DTD SVG 20010904//EN"
 "http://www.w3.org/TR/2001/REC-SVG-20010904/DTD/svg10.dtd">
<svg version="1.0" xmlns="http://www.w3.org/2000/svg"
 width="2344.000000pt" height="2344.000000pt" viewBox="0 0 2344.000000 2344.000000"
 preserveAspectRatio="xMidYMid meet">
<metadata>
Created by potrace 1.14, written by Peter Selinger 2001-2017
</metadata>
<g transform="translate(0.000000,2344.000000) scale(0.100000,-0.100000)"
fill="#000000" stroke="none">
<path d="M11261 23368 c268 -264 419 -616 494 -1148 11 -81 19 -233 19 -375 0
-139 -11 -394 -19 -417 -2 -7 -6 -40 -9 -73 -5 -54 -25 -193 -41 -285 -3 -19
-20 -97 -36 -173 -90 -410 -222 -801 -424 -1251 -58 -131 -211 -428 -390 -761
-362 -671 -505 -1004 -600 -1400 -72 -294 -97 -617 -72 -904 22 -250 110 -606
212 -854 16 -39 -338 199 -475 318 -135 118 -246 228 -328 325 -26 30 -53 62
-61 70 -8 8 -52 66 -99 128 -328 442 -583 1034 -752 1752 -206 873 -524 1566
-976 2130 -121 151 -364 400 -494 506 -383 314 -789 513 -1220 598 -70 14
-102 19 -190 32 -19 2 -116 7 -215 9 l-180 5 85 -24 c118 -33 187 -59 268 -99
711 -357 1268 -1293 1501 -2522 77 -408 110 -746 126 -1315 14 -492 20 -639
30 -750 2 -30 7 -84 10 -120 30 -340 101 -689 194 -951 167 -470 452 -877 846
-1207 50 -41 96 -81 104 -88 31 -28 -384 3 -609 46 -706 135 -1391 544 -2070
1236 -300 306 -459 462 -567 555 -59 51 -110 96 -113 100 -10 11 -247 196
-315 245 -448 322 -940 564 -1390 684 -119 32 -317 74 -405 85 -30 4 -63 9
-72 11 -46 8 -246 18 -363 18 -380 -1 -717 -72 -1055 -223 -101 -45 -300 -156
-300 -167 0 -2 8 -1 18 4 17 9 122 39 165 48 142 29 365 33 532 9 524 -73
1092 -366 1655 -853 74 -63 400 -388 475 -473 160 -178 328 -390 464 -584 50
-71 94 -134 99 -140 19 -24 110 -167 242 -380 78 -126 190 -306 248 -400 549
-885 1018 -1329 1677 -1590 184 -72 477 -150 648 -170 31 -4 57 -10 57 -14 0
-13 -202 -119 -340 -179 -405 -175 -787 -250 -1275 -250 -121 0 -256 4 -300 9
-44 4 -108 10 -142 14 -34 3 -72 8 -85 10 -13 2 -45 6 -73 10 -181 23 -550
103 -765 165 -41 12 -88 25 -105 30 -16 4 -84 23 -150 43 -349 102 -729 178
-1015 203 -36 3 -76 8 -90 10 -101 16 -502 23 -710 11 -260 -14 -591 -67 -790
-125 -30 -9 -59 -17 -65 -18 -110 -24 -382 -132 -557 -221 -495 -252 -855
-596 -1108 -1058 -20 -37 -16 -34 47 30 91 93 118 115 216 181 178 121 469
238 697 280 188 35 231 41 370 51 709 50 1525 -117 2357 -483 212 -93 634
-309 963 -492 83 -46 484 -248 560 -281 136 -61 263 -112 390 -157 129 -46
391 -118 470 -129 24 -4 47 -8 50 -10 9 -6 162 -25 255 -33 157 -12 536 -4
564 12 3 2 29 6 56 10 28 3 61 8 75 11 112 22 148 30 245 56 112 29 238 70
333 108 29 11 55 21 57 21 7 0 -85 -148 -152 -245 -272 -394 -632 -717 -1075
-964 -399 -223 -832 -380 -1458 -531 -981 -236 -1771 -648 -2341 -1219 -256
-257 -422 -479 -569 -763 -194 -375 -287 -744 -289 -1143 l0 -130 28 100 c16
55 38 125 50 155 293 728 1247 1335 2494 1585 95 19 190 37 212 40 22 3 65 10
95 15 30 5 75 12 100 15 25 3 77 10 115 15 39 5 99 12 135 15 36 3 85 8 110
10 131 12 363 23 615 30 280 7 485 14 590 20 121 7 354 25 385 30 14 2 50 7
80 10 52 6 149 20 215 31 99 17 277 58 382 88 334 96 646 251 908 449 176 133
373 325 514 500 30 37 56 67 57 67 4 0 -4 -192 -11 -285 -5 -70 -17 -161 -40
-310 -12 -77 -67 -291 -102 -395 -203 -606 -583 -1164 -1199 -1760 -393 -380
-578 -584 -794 -874 -319 -428 -557 -883 -693 -1326 -37 -117 -71 -249 -82
-308 -3 -18 -12 -63 -19 -100 -27 -129 -47 -338 -50 -512 -6 -410 70 -770 239
-1135 35 -76 142 -265 149 -265 2 0 -7 34 -20 75 -13 41 -26 89 -29 107 -3 18
-7 44 -10 58 -24 135 -23 338 4 501 84 514 340 1020 790 1559 107 129 426 453
565 575 204 181 480 391 736 562 134 89 209 136 595 373 541 333 862 572 1121
837 264 268 427 513 596 893 25 54 85 235 113 340 28 104 75 339 75 376 0 42
15 26 67 -69 123 -225 216 -462 276 -703 45 -178 64 -289 87 -504 8 -78 6
-617 -3 -660 -3 -14 -8 -54 -11 -90 -4 -36 -9 -78 -11 -95 -3 -16 -7 -48 -10
-70 -37 -273 -107 -575 -225 -975 -107 -361 -189 -763 -215 -1050 -4 -36 -8
-76 -11 -90 -8 -46 -19 -324 -18 -475 3 -828 229 -1559 652 -2105 203 -262
488 -506 758 -650 l59 -31 -76 74 c-230 225 -378 528 -463 948 -9 41 -18 100
-21 130 -3 30 -8 64 -11 76 -24 115 -23 610 1 803 54 427 122 722 257 1125
130 390 297 760 573 1270 167 310 174 323 265 500 195 377 326 708 404 1020
24 100 28 116 46 230 36 218 46 494 25 701 -25 243 -95 534 -181 757 -19 49
-34 91 -34 93 0 12 241 -146 365 -240 473 -359 829 -852 1088 -1506 107 -270
188 -530 267 -860 99 -413 233 -826 357 -1100 253 -558 532 -973 892 -1330
465 -462 980 -735 1558 -825 54 -9 181 -18 283 -20 l185 -5 -85 24 c-296 82
-513 216 -770 475 -326 329 -575 751 -781 1324 -72 200 -163 533 -204 747 -41
210 -78 445 -90 570 -4 36 -8 76 -10 90 -2 14 -6 61 -9 105 -4 44 -9 107 -11
140 -7 92 -14 259 -20 485 -15 591 -27 792 -66 1088 -108 833 -429 1446 -1019
1944 -52 45 -96 84 -98 89 -4 9 170 3 328 -12 824 -78 1586 -493 2365 -1290
421 -431 526 -529 775 -728 336 -268 726 -508 1060 -650 41 -18 89 -38 105
-46 97 -42 270 -100 450 -151 69 -19 318 -71 385 -79 30 -4 62 -9 70 -10 39
-7 227 -18 335 -20 445 -5 896 106 1255 310 133 75 150 90 77 65 -232 -78
-544 -82 -848 -11 -465 109 -985 398 -1465 816 -90 77 -420 408 -509 509 -195
221 -531 668 -630 838 -5 10 -48 78 -95 153 -105 167 -233 375 -294 475 -75
125 -266 408 -358 530 -244 325 -484 565 -761 763 -318 228 -745 399 -1157
464 -60 9 -110 20 -110 23 0 11 210 120 340 175 330 142 626 213 1015 244 106
9 510 7 585 -3 25 -3 104 -13 175 -21 332 -39 649 -110 1110 -245 292 -86 665
-165 920 -195 28 -3 64 -7 80 -9 297 -36 703 -41 990 -10 45 4 95 11 235 30
182 24 559 121 695 179 17 7 62 25 100 40 103 42 307 145 407 206 339 208 600
457 802 764 68 103 126 201 126 213 0 3 -37 -32 -82 -76 -130 -127 -233 -198
-413 -282 -138 -65 -355 -136 -475 -156 -14 -2 -34 -6 -46 -9 -53 -12 -232
-36 -316 -42 -238 -17 -670 -1 -838 32 -14 3 -41 7 -60 9 -20 3 -47 7 -60 10
-14 3 -42 8 -62 11 -52 7 -248 50 -371 80 -325 82 -717 223 -1070 385 -213 97
-337 161 -807 415 -448 242 -777 394 -1060 488 -127 43 -326 96 -415 112 -22
4 -49 9 -60 11 -273 48 -616 53 -865 13 -211 -34 -424 -90 -607 -159 -59 -22
-108 -40 -109 -40 -6 0 42 79 122 200 316 479 734 835 1309 1115 350 170 714
295 1213 415 816 196 1458 484 2002 895 593 450 1002 1029 1161 1644 48 185
69 339 76 541 5 172 2 217 -11 145 -32 -174 -141 -403 -281 -590 -76 -101
-273 -302 -388 -394 -567 -456 -1366 -760 -2342 -891 -127 -17 -173 -22 -315
-35 -118 -11 -363 -23 -620 -30 -376 -10 -670 -22 -750 -30 -25 -2 -79 -7
-120 -10 -65 -5 -122 -12 -255 -30 -323 -44 -682 -142 -889 -241 -28 -13 -53
-24 -56 -24 -19 0 -251 -132 -360 -205 -213 -142 -426 -334 -596 -538 -43 -51
-83 -98 -90 -106 -21 -23 -8 261 22 464 72 497 261 963 572 1410 37 54 74 107
82 119 8 11 57 75 110 141 164 207 294 349 524 574 286 279 369 363 467 471
721 796 1135 1662 1198 2510 8 116 6 358 -4 460 -36 354 -142 703 -300 980
-75 133 -90 150 -65 77 22 -65 46 -176 55 -252 7 -61 7 -297 0 -345 -10 -67
-27 -175 -30 -190 -151 -740 -719 -1543 -1585 -2241 -274 -220 -455 -341
-1193 -796 -155 -95 -444 -290 -557 -375 -574 -432 -913 -873 -1109 -1444 -47
-137 -104 -369 -122 -496 -7 -49 -16 -88 -20 -88 -3 0 -24 33 -45 73 -199 372
-307 704 -360 1107 -20 148 -26 566 -11 760 25 331 108 746 237 1180 59 198
96 335 116 427 33 152 63 300 69 338 3 22 7 47 10 55 2 8 6 36 9 62 3 26 10
76 15 110 6 35 13 95 17 133 3 39 8 79 10 90 20 109 23 671 4 835 -5 36 -11
92 -14 125 -89 828 -464 1570 -1021 2022 -91 73 -271 195 -360 243 l-60 32 76
-74z m719 -9032 c14 -2 52 -7 85 -11 100 -11 253 -44 385 -82 786 -226 1436
-836 1715 -1608 45 -123 105 -347 120 -445 4 -25 9 -53 11 -64 2 -10 6 -51 10
-90 3 -39 8 -82 10 -96 6 -36 6 -336 -1 -395 -26 -242 -53 -384 -107 -560
-149 -490 -467 -960 -858 -1266 -30 -24 -57 -46 -60 -49 -7 -7 -49 -36 -140
-97 -351 -235 -807 -392 -1219 -420 -175 -12 -436 -6 -541 11 -14 3 -47 7 -74
11 -91 11 -300 63 -422 104 -388 131 -721 338 -1014 631 -243 243 -418 502
-553 818 -116 271 -171 493 -202 822 -7 77 -8 340 -1 390 3 19 8 64 11 100 39
426 225 893 505 1268 100 135 309 353 435 454 404 327 860 515 1385 573 107
12 461 13 520 1z"/>
<path d="M11577 13784 c-1 -1 -58 -5 -127 -8 -128 -7 -179 -12 -234 -20 -17
-3 -53 -8 -81 -11 -27 -4 -76 -13 -108 -20 -31 -7 -61 -14 -65 -15 -55 -9
-187 -48 -267 -77 -275 -102 -476 -241 -614 -427 -64 -85 -104 -163 -141 -275
-74 -229 -57 -559 41 -777 97 -217 302 -401 544 -489 28 -10 55 -22 60 -25 6
-4 71 -24 145 -43 127 -34 195 -48 300 -62 25 -3 56 -8 70 -10 14 -2 49 -6 78
-9 28 -3 76 -9 105 -12 28 -3 63 -7 77 -9 14 -2 59 -7 100 -11 41 -4 77 -8 80
-9 3 -1 41 -5 85 -9 44 -5 87 -9 95 -11 8 -1 46 -6 83 -10 37 -3 76 -8 85 -10
10 -2 49 -6 87 -9 39 -4 81 -8 95 -11 14 -2 52 -7 85 -10 56 -5 105 -11 180
-20 17 -2 57 -7 90 -10 274 -30 405 -134 406 -323 1 -113 -32 -185 -120 -264
-77 -69 -261 -150 -391 -172 -19 -3 -46 -9 -60 -12 -36 -7 -65 -11 -150 -20
-41 -4 -88 -8 -105 -10 -45 -5 -396 -4 -430 0 -16 3 -59 8 -95 11 -454 45
-865 197 -1273 473 -27 18 -52 30 -56 27 -5 -2 -43 -62 -85 -132 -43 -70 -102
-168 -133 -218 -31 -49 -63 -103 -73 -120 -9 -16 -39 -65 -65 -109 -27 -43
-44 -81 -38 -85 5 -3 56 -38 114 -77 262 -178 520 -303 801 -389 102 -31 84
-26 268 -64 80 -16 174 -32 210 -36 36 -4 73 -9 82 -11 97 -18 588 -25 783
-12 217 16 293 26 569 84 120 24 373 119 486 181 399 221 593 537 591 968 -1
415 -198 735 -566 918 -178 89 -435 164 -650 192 -89 11 -122 15 -167 20 -71
8 -139 15 -173 20 -16 2 -57 7 -90 10 -33 3 -74 8 -92 10 -34 5 -175 21 -267
31 -33 3 -67 7 -75 9 -9 1 -50 6 -91 10 -41 4 -83 9 -92 10 -9 2 -48 7 -85 10
-37 4 -79 8 -93 10 -14 2 -45 7 -70 10 -334 46 -446 149 -405 375 25 141 216
257 485 295 25 3 56 8 70 10 148 22 539 21 723 -1 81 -9 123 -15 147 -19 14
-3 40 -7 58 -10 253 -42 599 -178 831 -328 l85 -55 76 117 c41 64 125 191 185
283 61 93 119 182 129 199 l19 31 -24 19 c-93 73 -509 312 -509 292 0 -3 -6
-1 -12 5 -13 10 -163 68 -249 96 -120 39 -374 95 -504 111 -27 3 -63 8 -80 10
-114 16 -586 38 -598 29z"/>
</g>
</svg>
