<svg width="105" height="163" fill="none" xmlns="http://www.w3.org/2000/svg"><path d="M85.604 58.384l.854-.52-.854.52zm6.425 103.657a.977.977 0 001.17.77l8.726-1.941c.535-.12.879-.658.768-1.203a.977.977 0 00-1.17-.77l-7.756 1.726-1.609-7.892a.979.979 0 00-1.17-.771c-.536.119-.88.657-.769 1.202l1.81 8.879zM.712 2.065L.78 3.072h.005a3.68 3.68 0 01.12-.009 36.058 36.058 0 012.008-.046c1.405.006 3.461.08 6.042.357 5.161.553 12.417 1.912 20.757 5.141 16.664 6.453 37.708 20.389 55.037 50.389l1.71-1.04C68.891 27.455 47.488 13.231 30.431 6.626c-8.521-3.3-15.946-4.693-21.25-5.26a61.524 61.524 0 00-6.24-.369 38.002 38.002 0 00-1.69.028 21.37 21.37 0 00-.595.032l-.01.001c-.001 0-.002 0 .067 1.007zm84.037 56.839c17.33 30 19.142 55.629 16.658 73.725-1.243 9.055-3.564 16.238-5.57 21.149a63.37 63.37 0 01-2.595 5.608 38.327 38.327 0 01-1.004 1.786l-.052.085-.013.019-.002.004v.001l.828.544c.827.545.828.544.828.543l.002-.002.005-.008.017-.028.064-.102a40.362 40.362 0 001.068-1.899 65.353 65.353 0 002.68-5.792c2.061-5.046 4.435-12.397 5.705-21.65 2.542-18.522.657-44.613-16.91-75.023l-1.709 1.04z" fill="#009FE3"/></svg>