<svg width="45" height="45" fill="none" xmlns="http://www.w3.org/2000/svg"><path d="M22.5 13.092c-5.097 0-9.242 4.094-9.242 9.127s4.145 9.126 9.242 9.126c5.097 0 9.242-4.093 9.242-9.126 0-5.033-4.145-9.127-9.242-9.127z" fill="#DCD8D5"/><path d="M45 10.114C45 4.538 40.405 0 34.758 0H10.242C4.595 0 0 4.538 0 10.114v24.205c0 5.58 4.595 10.117 10.242 10.114h24.513c5.65 0 10.245-4.538 10.245-10.114V10.114zM22.5 36.137c-7.773 0-14.096-6.244-14.096-13.92C8.404 14.544 14.727 8.3 22.5 8.3s14.096 6.244 14.096 13.919c0 7.675-6.323 13.92-14.096 13.92zm17.206-25.902a3.618 3.618 0 01-2.518 1.029 3.61 3.61 0 01-2.514-1.029 3.522 3.522 0 01-1.045-2.486 3.51 3.51 0 011.045-2.486 3.596 3.596 0 012.514-1.029c.939 0 1.858.374 2.518 1.029a3.508 3.508 0 011.042 2.486c0 .923-.379 1.83-1.042 2.486z" fill="#DCD8D5"/></svg>