<svg width="25" height="25" fill="none" xmlns="http://www.w3.org/2000/svg"><g clip-path="url(#clip0)" fill="#fff"><path d="M21.053 10.482c.036-3.518-2.964-6.75-6.696-7.196-.053 0-.143-.018-.232-.036a2.908 2.908 0 00-.554-.054c-.767 0-.964.536-1.017.857-.054.304-.018.554.142.768.25.34.697.393 1.054.447.107.018.196.035.286.053 3.339.75 4.464 1.929 5.018 5.232.017.09.017.179.017.286.018.393.072 1.214.965 1.214.071 0 .16 0 .232-.017.821-.125.803-.875.785-1.233v-.321z"/><path d="M13.34 2c.107 0 .196.018.267.036 5.482.839 8.018 3.446 8.715 8.982.017.09.017.214.017.34 0 .428.018 1.32.983 1.356h.035c.304 0 .536-.089.715-.268.303-.321.285-.785.267-1.16v-.25C24.411 5.375 19.518.25 13.857.054h-.143c-.053 0-.125 0-.196-.018C13.428 0 13.339 0 13.232 0c-.893 0-1.071.643-1.09 1.018-.053.875.787.946 1.197.982zm8.731 16.142c-.125-.089-.232-.178-.357-.267a32.767 32.767 0 00-1.857-1.358c-.125-.089-.25-.178-.393-.267-.785-.554-1.5-.822-2.178-.822-.911 0-1.697.5-2.34 1.482-.285.429-.642.643-1.071.643-.25 0-.554-.071-.857-.214-2.536-1.16-4.357-2.929-5.393-5.268-.5-1.125-.34-1.875.536-2.482.5-.34 1.446-.982 1.375-2.197-.072-1.375-3.125-5.535-4.411-6-.554-.196-1.107-.196-1.696 0C1.946 1.892.893 2.75.375 3.91c-.518 1.107-.482 2.43.071 3.786 1.608 3.929 3.858 7.357 6.697 10.196 2.786 2.768 6.196 5.036 10.16 6.75.358.161.733.233 1 .304.09.018.18.036.233.054.035 0 .071.017.107.017h.036c1.857 0 4.107-1.696 4.785-3.642.59-1.715-.518-2.554-1.393-3.233zm-7.892-11.66c-.322.018-.983.036-1.233.697-.107.321-.089.59.054.821.196.34.571.429.91.482 1.25.197 1.894.893 2.019 2.179.053.607.464 1.018.982 1.018h.125c.625-.072.928-.536.893-1.357.017-.857-.447-1.84-1.215-2.625-.768-.786-1.696-1.232-2.535-1.215z"/></g><defs><clipPath id="clip0"><path fill="#fff" d="M0 0h24.357v25H0z"/></clipPath></defs></svg>