<svg width="26" height="25" fill="none" xmlns="http://www.w3.org/2000/svg"><g clip-path="url(#clip0)"><path d="M25.2.867A2.235 2.235 0 0023.418 0c-.466 0-.933.133-1.416.383L1.534 11.117c-1.45.75-1.55 1.9-1.533 2.366.016.467.25 1.6 1.766 2.2l2.617 1.034c.5.2 1.05.3 1.65.3.1 0 .183-.017.283-.017-.033.05-.083.083-.116.133-.484.734-.517 1.717-.067 2.784 0 .016.017.033.017.05.766 1.716 1.633 3.65 1.733 3.916C8.15 24.533 8.8 25 9.517 25c1.1 0 1.434-.533 3.234-3.467.133-.216.45-.716.5-1.35.216.084.416.167.583.234l2.9 1.183c.583.233 1.083.45 1.35.55.083.05.167.1.267.133.2.084.416.117.633.117 1.317 0 1.633-1.133 1.8-1.75.083-.3.2-.717.317-1.183l4.416-16.234c.35-1.233-.05-2.016-.316-2.366zM11.3 20.6s-1.633 2.667-1.783 2.667h-.016c-.167-.434-1.784-4.017-1.784-4.017-.3-.717-.25-1.333.267-1.333.117 0 .25.033.4.1l1.267.65c.216.15.433.266.683.366l.067.017.116.067c.984.5 1.3.7.784 1.483zM23.868 2.767L19.451 19c-.25.917-.45 1.667-.467 1.667v-.017s-.717-.3-1.6-.667l-2.9-1.183c-.883-.35-2.317-.933-3.217-1.267l-.15-.05-.533-.283c-.533-.417-.583-1.083-.05-1.667l8.967-9.6c.366-.383.5-.583.416-.583-.066 0-.266.133-.6.383l-11.333 8.95c-.483.384-1.233.6-1.95.6-.367 0-.717-.05-1.017-.183l-2.6-1.033c-.883-.35-.916-.984-.083-1.434L22.8 1.9c.233-.117.45-.183.616-.183.434.016.634.4.45 1.05z" fill="#fff"/></g><defs><clipPath id="clip0"><path fill="#fff" d="M0 0h25.667v25H0z"/></clipPath></defs></svg>