<svg width="66" height="65" fill="none" xmlns="http://www.w3.org/2000/svg"><circle cx="32.641" cy="32.534" r="31.966" fill="#009FE3" stroke="#fff"/><g clip-path="url(#clip0)"><path d="M48.486 18.076a2.902 2.902 0 00-2.316-1.126c-.606 0-1.212.173-1.84.498L17.751 31.387c-1.883.974-2.013 2.467-1.991 3.073.021.606.324 2.078 2.294 2.857l3.398 1.342c.65.26 1.364.39 2.143.39.13 0 .238-.022.368-.022-.043.065-.108.108-.152.173-.627.953-.67 2.23-.086 3.615 0 .022.021.043.021.065.996 2.23 2.122 4.74 2.252 5.086.346.844 1.19 1.45 2.12 1.45 1.43 0 1.862-.692 4.2-4.502.173-.28.584-.93.649-1.753.281.108.541.217.757.303l3.767 1.537c.757.303 1.406.584 1.753.714.108.065.216.13.346.173.26.109.541.152.822.152 1.71 0 2.122-1.472 2.338-2.273.108-.39.26-.93.411-1.536l5.736-21.082c.455-1.602-.065-2.619-.411-3.073zM30.435 43.702s-2.122 3.464-2.316 3.464h-.022c-.216-.563-2.316-5.217-2.316-5.217-.39-.93-.325-1.731.346-1.731.152 0 .325.043.52.13l1.645.844c.281.194.563.346.887.476l.087.022.151.086c1.277.65 1.688.91 1.017 1.926zm16.32-23.159l-5.736 21.082c-.325 1.19-.585 2.164-.606 2.164v-.022s-.931-.39-2.078-.865l-3.766-1.537c-1.148-.455-3.009-1.212-4.178-1.645l-.195-.065-.692-.368c-.693-.541-.758-1.407-.065-2.164l11.645-12.467c.476-.498.649-.758.54-.758-.086 0-.346.173-.779.498L26.127 36.019c-.627.498-1.601.779-2.532.779-.476 0-.93-.065-1.32-.238l-3.377-1.342c-1.147-.455-1.19-1.277-.108-1.862l26.579-13.938c.303-.152.584-.238.8-.238.564.021.823.519.585 1.363z" fill="#fff"/></g><defs><clipPath id="clip0"><path fill="#fff" transform="translate(15.759 16.95)" d="M0 0h33.332v32.466H0z"/></clipPath></defs></svg>