<svg width="36" height="35" fill="none" xmlns="http://www.w3.org/2000/svg"><path d="M34.717 1.756a3.055 3.055 0 00-2.43-1.168c-.635 0-1.27.18-1.93.517L2.48 15.578C.505 16.59.37 18.14.392 18.77c.022.629.34 2.157 2.406 2.966l3.564 1.394c.681.27 1.43.404 2.248.404.136 0 .25-.022.386-.022-.046.067-.114.112-.16.18-.658.988-.703 2.314-.09 3.753 0 .022.023.045.023.067 1.044 2.315 2.224 4.922 2.36 5.282.364.876 1.25 1.505 2.225 1.505 1.499 0 1.953-.719 4.405-4.674.181-.292.613-.967.68-1.82.296.112.568.224.795.314l3.95 1.596c.795.314 1.476.607 1.839.741.114.068.227.135.363.18.273.113.568.157.863.157 1.793 0 2.225-1.528 2.452-2.36.113-.404.272-.966.431-1.595l6.016-21.89c.477-1.663-.068-2.72-.431-3.192zm-18.933 26.61s-2.225 3.596-2.43 3.596h-.022c-.227-.584-2.43-5.416-2.43-5.416-.408-.967-.34-1.798.364-1.798.159 0 .34.045.545.135l1.725.876c.295.202.59.36.93.495l.092.022.159.09c1.339.674 1.77.944 1.066 2zM32.9 4.318l-6.016 21.89c-.341 1.237-.613 2.248-.636 2.248v-.022s-.976-.405-2.18-.9l-3.95-1.595c-1.203-.472-3.155-1.259-4.38-1.708l-.205-.068-.727-.382c-.726-.561-.794-1.46-.068-2.247L26.953 8.589c.5-.517.68-.787.567-.787-.09 0-.363.18-.817.517L11.266 20.388c-.659.517-1.68.809-2.656.809-.5 0-.976-.068-1.385-.247l-3.541-1.394c-1.204-.472-1.25-1.326-.114-1.933L31.448 3.15c.317-.158.612-.248.84-.248.59.023.862.54.613 1.416z" fill="#009FE3"/></svg>