<?xml version="1.0" standalone="no"?>
<!DOCTYPE svg PUBLIC "-//W3C//DTD SVG 20010904//EN"
 "http://www.w3.org/TR/2001/REC-SVG-20010904/DTD/svg10.dtd">
<svg version="1.0" xmlns="http://www.w3.org/2000/svg"
 width="128.000000pt" height="128.000000pt" viewBox="0 0 128.000000 128.000000"
 preserveAspectRatio="xMidYMid meet">
<metadata>
Created by potrace 1.14, written by Peter Selinger 2001-2017
</metadata>
<g transform="translate(0.000000,128.000000) scale(0.100000,-0.100000)"
fill="#000000" stroke="none">
<path d="M131 1123 c-27 -54 -19 -180 13 -205 17 -14 19 -19 9 -29 -10 -10
-16 -10 -25 -1 -15 15 -48 16 -48 2 0 -17 39 -50 60 -50 26 0 60 34 60 60 0
11 -9 29 -20 40 -19 19 -29 80 -12 80 4 0 121 -53 259 -117 l253 -118 0 -142
0 -143 -70 0 c-69 0 -70 0 -51 19 11 11 32 21 48 23 26 3 28 7 31 52 3 42 -1
53 -24 77 -15 16 -36 29 -46 29 -11 0 -51 27 -90 60 l-72 60 -101 0 c-114 0
-115 -1 -155 -77 -19 -37 -26 -43 -55 -43 -46 0 -56 -18 -53 -92 3 -61 4 -63
31 -66 16 -2 37 -12 47 -22 19 -19 18 -19 -28 -22 l-47 -3 -3 -94 c-3 -103 4
-121 49 -121 21 0 32 -6 38 -23 18 -45 59 -72 111 -72 52 0 93 27 111 73 l9
22 250 0 250 0 9 -22 c18 -46 59 -73 111 -73 52 0 93 27 111 73 7 19 16 22 59
22 85 0 90 11 90 191 l0 151 -56 104 c-31 57 -62 111 -71 119 -11 12 -45 15
-163 15 l-148 0 -321 150 c-176 83 -323 150 -326 150 -2 0 -13 -17 -24 -37z
m352 -158 c241 -112 277 -132 277 -151 0 -21 -14 -16 -192 67 -106 50 -238
111 -293 136 -115 52 -120 56 -111 78 4 11 11 13 23 7 10 -5 143 -67 296 -137z
m359 -252 l3 -108 178 -3 c169 -2 177 -3 177 -22 0 -17 -7 -20 -48 -20 -57 0
-72 -12 -72 -60 0 -48 15 -60 72 -60 41 0 48 -3 48 -20 0 -16 -7 -20 -30 -20
-23 0 -30 -4 -30 -20 0 -16 7 -20 31 -20 24 0 30 -4 27 -17 -2 -14 -15 -19
-51 -21 -41 -3 -48 0 -56 20 -18 46 -59 73 -111 73 -52 0 -93 -27 -111 -72 -6
-17 -17 -23 -39 -23 l-30 0 0 250 c0 242 1 250 20 250 18 0 20 -8 22 -107z
m292 22 c25 -47 46 -87 46 -90 0 -3 -67 -5 -150 -5 l-150 0 0 90 0 90 104 0
104 0 46 -85z m-834 5 l0 -40 -65 0 -65 0 20 40 c19 38 23 40 65 40 l45 0 0
-40z m140 0 l45 -39 -72 -1 -73 0 0 40 c0 37 2 40 28 40 17 0 43 -15 72 -40z
m304 14 c13 -5 16 -26 16 -130 0 -117 -1 -124 -20 -124 -19 0 -20 7 -20 130 0
72 2 130 4 130 2 0 11 -3 20 -6z m-156 -106 c14 -14 16 -68 2 -68 -5 0 -19 9
-30 20 -11 11 -29 20 -40 20 -11 0 -29 -9 -40 -20 -18 -18 -33 -20 -140 -20
-107 0 -122 2 -140 20 -11 11 -29 20 -40 20 -11 0 -29 -9 -40 -20 -30 -30 -40
-25 -40 20 l0 40 248 0 c180 0 251 -3 260 -12z m-412 -79 c10 -17 -13 -36 -27
-22 -12 12 -4 33 11 33 5 0 12 -5 16 -11z m360 0 c10 -17 -13 -36 -27 -22 -12
12 -4 33 11 33 5 0 12 -5 16 -11z m-56 -49 l20 -20 -160 0 c-157 0 -160 0
-142 19 15 17 32 19 140 20 109 1 124 -1 142 -19z m720 -20 c0 -17 -7 -20 -40
-20 -33 0 -40 3 -40 20 0 17 7 20 40 20 33 0 40 -3 40 -20z m-440 -110 l0 -70
-200 0 c-199 0 -201 0 -209 23 -18 45 -59 72 -111 72 -52 0 -93 -27 -111 -72
-5 -14 -17 -23 -29 -23 -18 0 -20 6 -20 70 l0 70 340 0 340 0 0 -70z m-465
-35 c33 -32 33 -78 0 -110 -49 -50 -135 -15 -135 55 0 41 39 80 80 80 19 0 40
-9 55 -25z m740 0 c50 -49 15 -135 -55 -135 -41 0 -80 39 -80 80 0 41 39 80
80 80 19 0 40 -9 55 -25z"/>
<path d="M840 540 c0 -17 7 -20 40 -20 33 0 40 3 40 20 0 17 -7 20 -40 20 -33
0 -40 -3 -40 -20z"/>
<path d="M220 300 c0 -13 7 -20 20 -20 13 0 20 7 20 20 0 13 -7 20 -20 20 -13
0 -20 -7 -20 -20z"/>
<path d="M960 300 c0 -13 7 -20 20 -20 13 0 20 7 20 20 0 13 -7 20 -20 20 -13
0 -20 -7 -20 -20z"/>
</g>
</svg>
