<?xml version="1.0" standalone="no"?>
<!DOCTYPE svg PUBLIC "-//W3C//DTD SVG 20010904//EN"
 "http://www.w3.org/TR/2001/REC-SVG-20010904/DTD/svg10.dtd">
<svg version="1.0" xmlns="http://www.w3.org/2000/svg"
 width="199.000000pt" height="199.000000pt" viewBox="0 0 199.000000 199.000000"
 preserveAspectRatio="xMidYMid meet">
<metadata>
Created by potrace 1.11, written by Peter Selinger 2001-2013
</metadata>
<g transform="translate(0.000000,199.000000) scale(0.100000,-0.100000)"
fill="#000000" stroke="none">
<path d="M10 1836 c0 -9 18 -15 53 -20 168 -20 216 -72 352 -385 l73 -166 151
-3 c83 -1 151 1 151 5 0 5 -29 81 -65 170 -71 176 -79 223 -46 283 26 50 71
76 151 90 48 8 70 16 70 26 0 12 -69 14 -445 14 -369 0 -445 -2 -445 -14z"/>
<path d="M1380 1835 c0 -10 10 -15 30 -15 38 0 98 -24 127 -52 72 -67 55 -221
-50 -450 l-27 -58 34 0 c27 0 36 5 41 23 4 12 47 103 95 203 67 135 101 193
135 228 47 49 123 90 188 101 22 4 37 13 37 21 0 12 -51 14 -305 14 -264 0
-305 -2 -305 -15z"/>
<path d="M664 842 c4 -7 272 -636 293 -690 3 -8 18 -12 36 -10 29 3 34 12 187
353 156 346 158 350 133 353 -14 2 -29 0 -33 -5 -4 -4 -43 -88 -85 -186 -43
-97 -80 -176 -82 -173 -2 2 -37 84 -77 183 l-73 178 -152 3 c-84 1 -150 -1
-147 -6z"/>
</g>
</svg>
