<svg version="1" xmlns="http://www.w3.org/2000/svg" width="697.333" height="697.333" viewBox="0 0 523.000000 523.000000"><path d="M5 263v254h7.4c6.8 0 7.4-.2 7.9-2.3 3.3-13 113.9-424.7 114.5-426 .5-1.2 10.2 34.7 29.5 109.6 15.8 61.2 29.2 112.9 29.7 114.9l1 3.5 23.8.6c13 .3 23.9.4 24 .2.4-.3-73.4-304.3-74.5-307.3-.4-.9-17.7-1.2-81.9-1.2H5v254zM382 10.2c0 .7 28 115 62.2 254C497.5 480.3 506.8 517 508.3 517c1.6 0 1.7-12.8 1.7-254V9h-64c-50.5 0-64 .3-64 1.2z"/><path d="M202 350.6c0 .7 36.9 162.4 37.6 164.6.5 1.7 2.7 1.8 27 1.8 24.8 0 26.5-.1 26-1.8-.6-1.8-39.6-164.3-39.6-164.9 0-.2-11.5-.3-25.5-.3s-25.5.3-25.5.6z"/></svg>