<svg id="Capa_1" enable-background="new 0 0 512 512" height="512" viewBox="0 0 512 512" width="512" xmlns="http://www.w3.org/2000/svg"><g><g><path d="m484.489 307.257c5.381-4.898 8.633-11.904 8.633-19.55v-63.413c0-14.608-11.872-26.493-26.464-26.493h-16.143c-4.454-15.613-10.691-30.659-18.6-44.863l11.416-11.417c5.001-5.001 7.752-11.665 7.746-18.762-.007-7.083-2.761-13.724-7.746-18.689l-44.834-44.835c-4.982-5.001-11.636-7.756-18.735-7.756-7.1 0-13.754 2.755-18.726 7.746l-11.416 11.416c-14.203-7.908-29.248-14.146-44.861-18.601v-16.143c0-14.592-11.884-26.464-26.492-26.464h-63.411c-14.608 0-26.492 11.872-26.492 26.464v16.143c-15.613 4.454-30.658 10.692-44.862 18.601l-11.415-11.416c-5.002-5.002-11.669-7.706-18.762-7.746-7.083.007-13.724 2.761-18.689 7.746l-44.835 44.835c-4.995 4.976-7.749 11.616-7.756 18.7-.007 7.097 2.744 13.76 7.746 18.762l11.416 11.417c-7.908 14.203-14.146 29.248-18.6 44.863h-16.143c-14.592-.001-26.464 11.884-26.464 26.491v63.413c0 14.608 11.872 26.493 26.464 26.493h16.143c4.454 15.615 10.692 30.66 18.6 44.863l-11.406 11.406c-5.001 4.982-7.756 11.636-7.756 18.736s2.754 13.753 7.746 18.726l44.834 44.835c4.975 4.995 11.616 7.75 18.699 7.756 7.054-.016 13.76-2.744 18.762-7.746l11.416-11.416c14.203 7.908 29.248 14.146 44.861 18.601v16.143c0 14.592 11.884 26.464 26.492 26.464h63.411c14.608 0 26.492-11.872 26.492-26.464v-16.147c10.076-2.881 19.954-6.521 29.494-10.852 18.813 19.509 45.202 31.664 74.379 31.664 16.938 0 33.755-4.197 48.631-12.137 3.654-1.951 5.035-6.494 3.085-10.148-1.951-3.655-6.496-5.034-10.148-3.085-12.71 6.785-27.084 10.371-41.568 10.371-48.726 0-88.368-39.643-88.368-88.371s39.642-88.371 88.368-88.371c48.727 0 88.368 39.643 88.368 88.371 0 21.665-7.944 42.525-22.368 58.74-2.753 3.095-2.476 7.835.619 10.588 3.094 2.753 7.834 2.477 10.588-.619 16.871-18.963 26.162-43.365 26.162-68.71 0-27.047-10.447-51.698-27.511-70.14zm-88.229-32.487c.771-6.216 1.163-12.501 1.163-18.784 0-83.18-67.683-150.853-150.877-150.853-24.667 0-49.156 6.098-70.819 17.633-3.656 1.947-5.042 6.489-3.095 10.145 1.948 3.657 6.491 5.042 10.146 3.095 19.501-10.385 41.552-15.874 63.769-15.874 74.923 0 135.877 60.943 135.877 135.853 0 7.344-.598 14.685-1.762 21.889-43.451 12.229-75.397 52.214-75.397 99.523 0 .383.01.764.015 1.146-6.973 3.36-14.147 6.087-21.497 8.18v-76.678c30.948-13.682 51.393-44.653 51.393-78.665 0-28.405-14.089-54.968-37.68-71.05-3.403-2.327-13.76-9.409-22.303-4.488-8.358 4.813-7.501 16.384-7.09 21.944.041.547.081.997.085 1.294v47.142c0 12.288-9.464 22.594-21.64 23.688-12.176-1.093-21.64-11.4-21.64-23.688v-47.124c.005-.315.045-.767.086-1.317.416-5.559 1.28-17.125-7.069-21.938-8.537-4.92-18.894 2.161-22.289 4.482-23.599 16.088-37.688 42.651-37.688 71.056 0 34.012 20.444 64.983 51.393 78.665v76.64c-56.877-16.222-98.642-68.674-98.642-130.7 0-39.521 17.165-77.003 47.092-102.836 3.136-2.707 3.483-7.443.777-10.578-2.707-3.137-7.443-3.485-10.578-.777-33.232 28.685-52.292 70.306-52.292 114.191 0 83.196 67.67 150.881 150.849 150.881 21.031 0 41.204-4.199 60.124-12.467 2.61 15.705 8.766 30.227 17.626 42.705-9.361 4.016-19.044 7.323-28.9 9.849-3.317.851-5.638 3.84-5.638 7.265v21.884c0 6.321-5.155 11.464-11.492 11.464h-63.411c-6.337 0-11.492-5.143-11.492-11.464v-21.884c0-3.427-2.323-6.418-5.643-7.267-18.137-4.635-35.509-11.838-51.633-21.408-2.947-1.748-6.707-1.277-9.131 1.146l-15.477 15.478c-2.162 2.162-5.048 3.353-8.129 3.353-.004 0-.008 0-.012 0-3.071-.003-5.943-1.19-8.097-3.353l-44.854-44.855c-2.155-2.147-3.342-5.026-3.342-8.109 0-3.082 1.187-5.962 3.352-8.119l15.478-15.478c2.424-2.424 2.896-6.183 1.146-9.131-9.569-16.124-16.771-33.496-21.407-51.634-.849-3.32-3.84-5.643-7.267-5.643h-21.884c-6.321 0-11.464-5.156-11.464-11.493v-63.413c0-6.337 5.143-11.493 11.464-11.493h21.883c3.427 0 6.418-2.323 7.267-5.643 4.636-18.139 11.838-35.511 21.407-51.634 1.75-2.948 1.278-6.707-1.146-9.131l-15.478-15.478c-2.165-2.165-3.355-5.056-3.352-8.141.003-3.071 1.19-5.943 3.352-8.097l44.854-44.855c2.144-2.152 5.016-3.339 8.087-3.342h.012c3.08 0 5.967 1.19 8.129 3.353l15.477 15.478c2.423 2.424 6.183 2.896 9.131 1.146 16.125-9.57 33.497-16.772 51.633-21.408 3.32-.849 5.643-3.84 5.643-7.267v-21.884c0-6.321 5.155-11.464 11.492-11.464h63.411c6.337 0 11.492 5.143 11.492 11.464v21.884c0 3.427 2.323 6.418 5.643 7.267 18.137 4.635 35.509 11.838 51.633 21.408 2.948 1.749 6.707 1.277 9.131-1.146l15.487-15.488c2.147-2.155 5.027-3.342 8.109-3.342s5.961 1.187 8.119 3.353l44.854 44.855c2.152 2.144 3.339 5.016 3.342 8.087.003 3.085-1.188 5.977-3.353 8.141l-15.477 15.478c-2.424 2.424-2.896 6.183-1.146 9.131 9.57 16.125 16.772 33.498 21.407 51.634.849 3.32 3.84 5.643 7.267 5.643h21.883c6.321 0 11.464 5.156 11.464 11.493v63.413c0 3.666-1.819 7.086-4.685 9.222-17.74-14.316-40.287-22.902-64.804-22.902-4.187-.001-8.314.256-12.372.742zm-176.816 23.195c-27.812-10.298-46.497-37.057-46.497-66.585 0-23.44 11.64-45.37 31.146-58.667 2.928-2.001 4.847-2.883 5.967-3.271.232 1.474.225 3.891-.024 7.221-.072.959-.128 1.717-.128 2.417v47.142c0 20.316 15.87 37.312 36.13 38.693.34.023.681.023 1.021 0 20.26-1.381 36.13-18.377 36.13-38.693v-47.142c0-.696-.056-1.448-.126-2.401-.248-3.344-.252-5.769-.015-7.242 1.12.386 3.045 1.267 5.992 3.282 19.497 13.292 31.137 35.222 31.137 58.662 0 29.528-18.686 56.287-46.497 66.585-2.942 1.089-4.896 3.896-4.896 7.033v85.068c-7.275 1.188-14.692 1.8-22.235 1.8-7.562 0-14.978-.631-22.207-1.826v-85.043c-.003-3.137-1.956-5.943-4.898-7.033z"/><path d="m459.132 331.442c-10.88-9.08-27.123-7.637-36.206 3.207l-26.108 31.13-4.313-3.657c-10.805-9.158-27.055-7.813-36.233 3.009-9.133 10.816-7.785 27.062 3.003 36.211l24.021 20.391c4.745 4.012 10.407 6.097 16.494 6.096.761 0 1.53-.032 2.304-.098 6.998-.592 13.066-3.752 17.531-9.119l42.689-50.94c4.41-5.262 6.508-11.931 5.908-18.779-.601-6.846-3.825-13.04-9.09-17.451zm-8.315 26.596-42.707 50.96c-1.936 2.327-4.25 3.53-7.284 3.787-3.029.255-5.521-.54-7.836-2.497l-24.012-20.384c-4.496-3.813-5.056-10.585-1.257-15.083 2.119-2.498 5.144-3.784 8.185-3.784 2.443 0 4.896.83 6.899 2.527l10.063 8.533c1.523 1.291 3.498 1.918 5.486 1.753 1.989-.169 3.829-1.124 5.111-2.654l30.957-36.912c3.786-4.52 10.56-5.114 15.088-1.335 2.18 1.827 3.519 4.403 3.769 7.255.251 2.859-.623 5.641-2.462 7.834z"/></g></g></svg>