<svg id="Capa_1" enable-background="new 0 0 512.017 512.017" height="512" viewBox="0 0 512.017 512.017" width="512" xmlns="http://www.w3.org/2000/svg"><g><path d="m512.017 146.986c0-8.066-3.126-15.635-8.803-21.311l-71.203-71.204c-9.465-9.465-22.091-14.678-35.553-14.678s-26.087 5.213-35.552 14.678l-14.241 14.241c-3.905 3.905-3.905 10.237 0 14.143l64.132 64.132-32.392 32.392-49.891-49.891c-11.751-11.75-30.871-11.752-42.624 0l-274.132 274.132c-15.677 15.678-15.677 41.187 0 56.864 7.571 7.571 17.668 11.741 28.433 11.741 10.764 0 20.861-4.17 28.432-11.74l160.182-160.183 14.339 14.339-49.565 49.566c-15.677 15.678-15.677 41.187 0 56.864 7.571 7.571 17.668 11.74 28.432 11.74s20.861-4.169 28.432-11.74l49.565-49.565 21.41 21.41c1.875 1.875 4.419 2.929 7.071 2.929s5.196-1.054 7.071-2.929l42.722-42.723c3.905-3.905 3.905-10.237 0-14.142l-21.41-21.41 146.342-146.343c5.677-5.677 8.803-13.246 8.803-21.312zm-275.717 259.942c-3.793 3.793-8.868 5.883-14.29 5.882-5.421 0-10.496-2.089-14.29-5.883-7.879-7.879-7.879-20.7 0-28.579l49.565-49.565 28.579 28.58zm92.189-35.226-85.542-85.543 28.58-28.58 85.542 85.542zm-49.891-135.336c-3.905-3.905-10.237-3.905-14.143 0l-209.975 209.975c-3.793 3.793-8.868 5.882-14.29 5.883-5.421 0-10.497-2.089-14.29-5.883-7.879-7.879-7.879-20.7 0-28.58l274.132-274.133c3.953-3.953 10.386-3.954 14.339 0l92.614 92.613-64.255 64.255zm210.474-82.21-67.944 67.944-28.58-28.579 39.463-39.463c3.905-3.905 3.905-10.237 0-14.143l-64.132-64.132 7.17-7.17c5.688-5.688 13.291-8.819 21.41-8.819s15.723 3.132 21.41 8.82l71.204 71.204c1.899 1.899 2.945 4.445 2.945 7.168-.001 2.724-1.047 5.27-2.946 7.17z"/><path d="m369.712 230.301c-3.905-3.905-10.237-3.905-14.143 0l-18.782 18.782c-3.905 3.905-3.905 10.237 0 14.143 1.953 1.953 4.512 2.929 7.071 2.929s5.119-.976 7.071-2.929l18.782-18.782c3.907-3.906 3.907-10.238.001-14.143z"/><path d="m341.428 202.017c-3.905-3.905-10.237-3.905-14.142 0l-18.782 18.783c-3.905 3.905-3.905 10.237 0 14.142 1.953 1.953 4.512 2.929 7.071 2.929s5.119-.977 7.071-2.929l18.782-18.782c3.905-3.906 3.905-10.238 0-14.143z"/><path d="m313.144 173.734c-3.905-3.905-10.237-3.905-14.142 0l-18.782 18.782c-3.905 3.905-3.906 10.237 0 14.142 1.953 1.953 4.512 2.929 7.071 2.929s5.119-.977 7.071-2.929l18.782-18.782c3.905-3.905 3.906-10.237 0-14.142z"/></g></svg>