<?xml version="1.0" standalone="no"?>
<!DOCTYPE svg PUBLIC "-//W3C//DTD SVG 20010904//EN"
 "http://www.w3.org/TR/2001/REC-SVG-20010904/DTD/svg10.dtd">
<svg version="1.0" xmlns="http://www.w3.org/2000/svg"
 width="512.000000pt" height="512.000000pt" viewBox="0 0 512.000000 512.000000"
 preserveAspectRatio="xMidYMid meet">
<metadata>
Created by potrace 1.11, written by Peter Selinger 2001-2013
</metadata>
<g transform="translate(0.000000,512.000000) scale(0.100000,-0.100000)"
fill="#000000" stroke="none">
<path d="M1 3833 c1 -958 4 -1279 12 -1253 8 26 161 187 596 630 322 327 822
836 1112 1130 289 294 570 581 623 637 54 56 116 111 139 122 l42 21 -1262 0
-1263 0 1 -1287z"/>
<path d="M2635 5101 c44 -21 179 -155 1646 -1651 760 -775 803 -819 821 -853
16 -30 17 35 18 1246 l0 1277 -1262 0 c-1241 0 -1262 -1 -1223 -19z"/>
<path d="M2423 4526 c-70 -73 -580 -593 -1132 -1154 -644 -655 -1015 -1025
-1034 -1032 -50 -17 -119 -12 -157 11 -42 26 -55 41 -80 94 -19 40 -20 31 -20
-1202 l0 -1243 443 0 442 1 -45 23 c-50 25 -85 69 -100 127 -7 24 -9 397 -8
1081 3 1020 3 1044 23 1082 70 137 257 140 325 5 19 -37 20 -62 20 -989 l0
-950 1460 0 1460 0 0 1403 -1 1402 -725 738 c-399 405 -729 737 -734 737 -4 0
-66 -60 -137 -134z m-433 -1371 c63 -33 60 22 60 -1050 0 -1066 2 -1027 -56
-1054 -17 -7 -121 -11 -320 -11 l-296 0 -29 29 -29 29 0 997 c0 714 3 1003 11
1018 29 56 30 57 342 57 238 0 293 -3 317 -15z m1315 -208 c114 -33 205 -85
280 -161 80 -81 118 -150 136 -248 15 -83 2 -177 -36 -254 -30 -62 -110 -153
-161 -184 -19 -12 -34 -25 -34 -29 0 -4 19 -16 43 -28 110 -54 229 -187 273
-307 32 -90 38 -158 20 -244 -21 -99 -58 -164 -141 -247 -75 -75 -148 -119
-260 -156 -70 -24 -74 -24 -642 -27 l-573 -3 -25 25 -25 25 0 901 c0 619 3
908 11 921 6 11 20 24 32 29 13 5 241 8 532 7 446 -3 517 -5 570 -20z"/>
<path d="M2320 2470 l0 -350 423 0 c455 0 505 5 613 54 29 14 76 46 104 72
106 99 132 225 71 349 -19 37 -50 80 -74 101 -61 53 -170 102 -252 114 -38 5
-253 10 -477 10 l-408 0 0 -350z"/>
<path d="M2320 1590 l0 -380 483 0 c502 0 563 4 645 43 75 35 154 117 191 197
30 64 33 79 29 143 -5 94 -34 155 -113 232 -63 62 -158 116 -237 135 -25 5
-241 10 -520 10 l-478 0 0 -380z"/>
<path d="M4390 1469 l0 -1335 -29 -45 c-18 -30 -44 -53 -72 -67 l-44 -22 438
0 437 0 0 1233 c-1 1040 -3 1227 -14 1202 -19 -42 -52 -74 -100 -96 -47 -21
-66 -23 -121 -8 -34 8 -76 47 -267 242 l-228 232 0 -1336z"/>
</g>
</svg>
