<?xml version="1.0" standalone="no"?>
<!DOCTYPE svg PUBLIC "-//W3C//DTD SVG 20010904//EN"
 "http://www.w3.org/TR/2001/REC-SVG-20010904/DTD/svg10.dtd">
<svg version="1.0" xmlns="http://www.w3.org/2000/svg"
 width="512.000000pt" height="512.000000pt" viewBox="0 0 512.000000 512.000000"
 preserveAspectRatio="xMidYMid meet">
<metadata>
Created by potrace 1.11, written by Peter Selinger 2001-2013
</metadata>
<g transform="translate(0.000000,512.000000) scale(0.100000,-0.100000)"
fill="#000000" stroke="none">
<path d="M2034 4782 c-168 -112 -432 -304 -544 -396 -30 -25 -91 -71 -135
-103 -43 -32 -91 -69 -105 -83 -14 -14 -63 -57 -110 -95 -173 -140 -238 -217
-201 -239 5 -3 51 -12 104 -20 53 -8 108 -20 124 -28 26 -12 29 -19 35 -88 10
-111 32 -870 33 -1145 0 -132 -4 -274 -9 -317 l-9 -76 39 -25 c61 -38 95 -42
152 -17 28 12 53 29 56 37 4 8 12 13 19 10 22 -8 38 8 39 40 1 32 -19 151 -33
197 -5 16 -9 46 -9 67 0 21 -5 58 -12 82 -6 24 -8 52 -4 63 7 18 8 17 22 -6
14 -23 14 -21 10 35 -3 33 -10 87 -16 120 -13 72 -25 145 -39 240 -6 39 -17
99 -26 135 -22 94 -35 165 -46 255 -38 301 -41 341 -19 338 27 -4 93 -21 170
-43 247 -70 277 -84 265 -124 -18 -59 -28 -158 -31 -316 -2 -96 -7 -185 -9
-197 -3 -13 -19 -30 -36 -39 -34 -17 -34 -14 -4 -134 37 -144 48 -177 75 -226
15 -28 38 -94 49 -148 36 -163 100 -292 191 -381 27 -27 40 -48 40 -66 0 -61
-14 -74 -157 -151 -215 -114 -256 -130 -329 -123 -34 3 -94 2 -134 -1 -61 -6
-78 -12 -106 -36 -34 -30 -74 -105 -119 -223 -32 -83 -78 -172 -165 -315 -101
-168 -207 -370 -293 -560 -36 -81 -107 -277 -126 -350 -7 -25 -17 -59 -22 -76
-5 -17 -9 -40 -9 -51 0 -11 -6 -38 -13 -59 -8 -22 -17 -63 -20 -91 l-6 -53
2006 0 2005 0 -5 103 c-3 56 -13 136 -22 177 -9 41 -18 90 -22 108 -3 18 -9
35 -14 38 -5 3 -9 16 -9 30 0 13 -4 32 -9 42 -5 9 -25 71 -46 137 -20 66 -41
128 -46 137 -5 10 -9 26 -9 36 0 10 -3 22 -7 25 -4 4 -16 35 -28 70 -12 34
-30 85 -39 112 -10 28 -38 92 -63 144 -46 95 -73 128 -220 264 l-62 57 -58 -2
-59 -3 -130 112 c-71 62 -157 146 -192 187 -34 42 -97 104 -139 138 -153 125
-170 144 -199 221 -15 40 -42 104 -61 142 -39 80 -39 109 1 212 19 51 28 61
68 80 51 24 109 87 142 153 13 25 35 97 50 160 24 99 27 121 17 157 -15 56
-34 73 -82 73 -21 0 -39 3 -39 8 0 98 -10 243 -17 262 -6 14 -13 57 -17 95
l-7 71 273 173 c150 96 289 184 308 196 84 52 155 87 218 106 97 30 162 66
162 88 0 22 -13 33 -60 51 -36 14 -76 31 -215 93 -44 20 -98 42 -120 50 -22 8
-96 35 -165 60 -196 71 -310 111 -520 180 -228 76 -676 219 -835 267 -38 12
-80 26 -93 31 -42 17 -66 8 -168 -59z"/>
<path d="M1511 2561 c-1 -34 2 -42 11 -33 8 8 8 20 1 44 l-11 33 -1 -44z"/>
<path d="M1530 2445 c0 -15 4 -24 10 -20 6 3 10 12 10 20 0 8 -4 17 -10 20 -6
4 -10 -5 -10 -20z"/>
<path d="M1550 2286 c0 -25 5 -48 10 -51 6 -4 10 13 10 44 0 28 -4 51 -10 51
-5 0 -10 -20 -10 -44z"/>
</g>
</svg>
