<?xml version="1.0" standalone="no"?>
<!DOCTYPE svg PUBLIC "-//W3C//DTD SVG 20010904//EN"
 "http://www.w3.org/TR/2001/REC-SVG-20010904/DTD/svg10.dtd">
<svg version="1.0" xmlns="http://www.w3.org/2000/svg"
 width="300.000000pt" height="300.000000pt" viewBox="0 0 300.000000 300.000000"
 preserveAspectRatio="xMidYMid meet">
<metadata>
Created by potrace 1.11, written by Peter Selinger 2001-2013
</metadata>
<g transform="translate(0.000000,300.000000) scale(0.100000,-0.100000)"
fill="#000000" stroke="none">
<path d="M542 2872 c-18 -64 -63 -232 -98 -372 -36 -140 -96 -370 -134 -510
-38 -140 -107 -403 -155 -585 -47 -181 -101 -386 -120 -455 -28 -101 -35 -143
-35 -217 l0 -93 1500 0 1500 0 0 95 0 94 -67 3 -67 3 -85 137 c-173 275 -434
686 -583 916 -43 67 -81 129 -84 137 -4 9 39 76 107 167 112 153 136 186 273
373 40 55 122 168 183 250 60 83 113 156 117 163 6 9 -19 12 -111 12 l-118 0
-24 -38 c-13 -20 -144 -206 -291 -412 -146 -206 -300 -423 -341 -482 -41 -59
-77 -107 -81 -108 -5 0 -8 234 -8 520 l0 520 -90 0 -90 0 0 -1080 0 -1081
-146 3 -147 3 -29 105 c-15 58 -75 285 -133 505 -221 848 -277 1058 -341 1298
l-67 247 -101 0 -101 0 -33 -118z m157 -227 c7 -38 30 -140 52 -225 31 -119
229 -927 229 -934 0 0 -138 0 -306 2 -285 2 -305 4 -299 20 3 9 47 184 96 387
49 204 103 422 120 485 25 95 78 336 79 359 1 23 20 -36 29 -94z m1375 -916
c75 -117 209 -328 431 -679 53 -85 106 -167 116 -182 11 -15 19 -30 19 -33 0
-3 -184 -5 -410 -5 l-410 0 0 408 0 409 77 107 c42 58 82 105 87 103 6 -2 46
-59 90 -128z m-988 -656 l62 -243 -469 0 c-259 0 -469 4 -469 9 0 14 110 463
116 473 3 4 161 7 352 6 l347 -3 61 -242z"/>
<path d="M1655 586 c-11 -8 -16 -19 -12 -30 15 -39 87 -32 87 8 0 35 -41 47
-75 22z"/>
<path d="M400 355 l0 -227 123 3 c201 6 230 36 225 234 -5 186 -27 207 -225
213 l-123 4 0 -227z m252 147 c21 -21 23 -31 23 -148 0 -125 0 -126 -28 -150
-24 -21 -38 -24 -103 -24 l-74 0 0 176 0 176 80 -4 c67 -3 83 -7 102 -26z"/>
<path d="M1335 469 c-53 -13 -85 -44 -85 -85 0 -43 40 -76 121 -98 93 -26 119
-42 119 -72 0 -50 -115 -69 -162 -27 -10 9 -18 22 -18 30 0 8 -12 13 -35 13
-43 0 -45 -16 -9 -59 55 -66 223 -69 274 -4 48 61 13 112 -103 148 -82 25
-127 48 -127 66 0 5 9 18 20 29 37 37 150 18 150 -26 0 -9 11 -14 35 -14 43 0
45 16 10 58 -18 22 -40 34 -76 41 -57 12 -59 12 -114 0z"/>
<path d="M903 450 c-46 -28 -53 -48 -53 -154 0 -87 2 -97 25 -125 34 -39 84
-55 156 -48 72 6 118 32 136 75 13 32 13 32 -16 32 -19 0 -40 -10 -59 -30 -26
-25 -38 -30 -79 -30 -67 0 -93 20 -93 71 l0 39 125 0 125 0 0 50 c0 100 -47
140 -167 140 -50 0 -77 -5 -100 -20z m171 -41 c19 -15 26 -30 26 -55 l0 -34
-90 0 -90 0 0 33 c0 17 4 37 8 43 25 38 105 45 146 13z"/>
<path d="M1650 300 l0 -170 35 0 35 0 0 170 0 170 -35 0 -35 0 0 -170z"/>
<path d="M1883 450 c-46 -27 -53 -48 -53 -148 0 -80 2 -92 24 -115 40 -43 143
-59 209 -32 14 6 17 1 17 -32 0 -55 -23 -73 -89 -73 -43 0 -56 4 -75 25 -26
28 -76 35 -76 10 0 -9 11 -27 24 -40 66 -66 241 -52 275 22 7 15 11 98 11 213
l0 190 -25 0 c-14 0 -28 -7 -31 -15 -5 -13 -9 -13 -34 0 -42 22 -138 19 -177
-5z m171 -41 c24 -19 26 -26 26 -100 0 -99 -15 -119 -89 -119 -72 0 -93 21
-99 99 -5 70 9 114 41 129 37 18 92 14 121 -9z"/>
<path d="M2270 300 l0 -170 35 0 35 0 0 125 c0 123 1 126 26 150 33 31 91 34
125 6 23 -18 24 -27 27 -150 l4 -131 30 0 29 0 -3 146 -3 146 -29 25 c-27 23
-36 25 -102 21 -54 -2 -78 -8 -94 -23 -21 -19 -21 -19 -27 3 -3 15 -13 22 -29
22 l-24 0 0 -170z"/>
</g>
</svg>
